<?xml version="1.0" encoding="UTF-8" standalone="no"?>
<svg width="171px" height="171px" viewBox="0 0 171 171" version="1.1" xmlns="http://www.w3.org/2000/svg" xmlns:xlink="http://www.w3.org/1999/xlink" xmlns:sketch="http://www.bohemiancoding.com/sketch/ns">
    <title>github</title>
    <g id="Page-1" stroke="none" stroke-width="1" fill="none" fill-rule="evenodd" sketch:type="MSPage">
        <g id="github" sketch:type="MSLayerGroup">
            <g id="Logo" transform="translate(18.000000, 20.000000)" fill="#FFFFFF" sketch:type="MSShapeGroup">
                <path d="M68.0930482,0.0628810976 C30.8534245,0.0628810976 0.655905512,30.3186727 0.655905512,67.6440348 C0.655905512,97.5036529 19.9786994,122.836373 46.7735395,131.77266 C50.1438332,132.398256 51.381171,130.306594 51.381171,128.521575 C51.381171,126.910022 51.318634,121.586301 51.289599,115.93915 C32.5285207,120.027347 28.5697099,107.965319 28.5697099,107.965319 C25.5020502,100.153763 21.0820295,98.0766496 21.0820295,98.0766496 C14.9634612,93.8821348 21.5432394,93.9683081 21.5432394,93.9683081 C28.3150952,94.4439402 31.8808168,100.93268 31.8808168,100.93268 C37.8955292,111.264526 47.6568736,108.277557 51.5051281,106.550733 C52.1103962,102.183872 53.85808,99.2002603 55.7866742,97.5137251 C40.8079633,95.8048073 25.0620583,90.0099307 25.0620583,64.1142857 C25.0620583,56.7358342 27.6964263,50.7070586 32.0103576,45.9742403 C31.3101674,44.2709181 29.0018847,37.3983153 32.6636452,28.0893575 C32.6636452,28.0893575 38.3265873,26.2730028 51.2136613,35.0167979 C56.5929539,33.5193964 62.3619854,32.7684574 68.0930482,32.7427173 C73.8241109,32.7684574 79.5976094,33.5193964 84.9869525,35.0167979 C97.8583923,26.2730028 103.513517,28.0893575 103.513517,28.0893575 C107.184212,37.3983153 104.874812,44.2709181 104.174622,45.9742403 C108.498604,50.7070586 111.115104,56.7358342 111.115104,64.1142857 C111.115104,90.0714831 95.3390475,95.7869011 80.3223677,97.4600067 C82.7412067,99.5572641 84.8964973,103.670082 84.8964973,109.975284 C84.8964973,119.016769 84.8183261,126.294498 84.8183261,128.521575 C84.8183261,130.320023 86.0322126,132.427353 89.4505257,131.763707 C116.230848,122.817348 135.529074,97.4935807 135.529074,67.6440348 C135.529074,30.3186727 105.336022,0.0628810976 68.0930482,0.0628810976" id="Fill-51"></path>
                <path d="M25.9133083,97.4541771 C25.7647831,97.7910365 25.2376862,97.8906394 24.7574919,97.6600978 C24.2683638,97.4396284 23.993648,96.9819025 24.1522238,96.6450431 C24.2973988,96.2992307 24.8256125,96.2041043 25.3136239,96.4335268 C25.8038687,96.6551153 26.0830514,97.1173177 25.9133083,97.4541771" id="Fill-52"></path>
                <path d="M29.2304665,100.420615 C28.908848,100.719424 28.2801285,100.580652 27.8535373,100.108377 C27.4124286,99.6372215 27.3297906,99.007149 27.655876,98.7038636 C27.987545,98.4050548 28.5972801,98.5449466 29.0395055,99.0161021 C29.4806142,99.4928532 29.5666025,100.118449 29.2304665,100.420615" id="Fill-53"></path>
                <path d="M31.5061626,104.2158 C31.0929722,104.503418 30.41735,104.233706 29.9996927,103.632731 C29.5865023,103.031756 29.5865023,102.311034 30.0086265,102.022297 C30.4274006,101.733561 31.0929722,101.9932 31.5162132,102.589698 C31.9282869,103.199626 31.9282869,103.921468 31.5061626,104.2158" id="Fill-54"></path>
                <path d="M35.3548517,108.611161 C34.9852138,109.019644 34.1979185,108.909969 33.6216854,108.352641 C33.0320515,107.807622 32.8678921,107.034301 33.2386467,106.625817 C33.6127515,106.216213 34.4045137,106.331484 34.9852138,106.884337 C35.5703807,107.428236 35.7490577,108.207153 35.3548517,108.611161" id="Fill-55"></path>
                <path d="M40.3289087,110.094985 C40.165866,110.624335 39.4076058,110.864949 38.6437619,110.640003 C37.8810347,110.408342 37.381856,109.788342 37.5359649,109.253396 C37.6945407,108.720688 38.4561511,108.470002 39.2255787,108.710616 C39.9871891,108.941157 40.4874845,109.556681 40.3289087,110.094985" id="Fill-56"></path>
                <path d="M45.9895944,110.724384 C46.0085788,111.281713 45.360875,111.743915 44.5590622,111.752868 C43.7527825,111.771893 43.1006117,111.320882 43.0916779,110.772506 C43.0916779,110.209582 43.7248643,109.751856 44.5311439,109.738427 C45.3329567,109.722759 45.9895944,110.170412 45.9895944,110.724384" id="Fill-57"></path>
                <path d="M51.5505839,110.51076 C51.6466228,111.054659 51.0893741,111.613107 50.293145,111.760833 C49.5103167,111.905201 48.7855584,111.569461 48.6861693,111.030038 C48.5890137,110.47271 49.156313,109.914262 49.9380246,109.769893 C50.7353704,109.631121 51.4489614,109.957908 51.5505839,110.51076" id="Fill-58"></path>
            </g>
        </g>
    </g>
</svg>
